<svg xmlns="http://www.w3.org/2000/svg" width="23.584" height="23.612" viewBox="0 0 23.584 23.612">
  <g id="Cheapest" transform="translate(1.028)">
    <g id="g1986" transform="translate(0 0)">
      <g id="g1988" transform="translate(0 0)">
        <g id="Group_42169" data-name="Group 42169" transform="translate(0 0)">
          <g id="g1996" transform="translate(0 7.206)">
            <path id="path1998" d="M-145.513,0V3.558h-3.936a1.214,1.214,0,0,0-.86,2.073l9.169,9.069a1.829,1.829,0,0,0,2.584,0l9.059-9.071a1.214,1.214,0,0,0-.861-2.071h-3.753V0" transform="translate(150.667)" fill="none" stroke="#3f3f3f" stroke-linecap="round" stroke-linejoin="round" stroke-miterlimit="10" stroke-width="2"/>
          </g>
          <g id="g2000" transform="translate(4.242)">
            <path id="path2002" d="M-51.509-25.754a.912.912,0,0,1-.912.912.912.912,0,0,1-.912-.912.912.912,0,0,1,.912-.912.912.912,0,0,1,.912.912" transform="translate(53.333 26.667)" fill="#3f3f3f"/>
          </g>
          <g id="g2004" transform="translate(4.242 3.193)">
            <path id="path2006" d="M-51.509-25.754a.912.912,0,0,1-.912.912.912.912,0,0,1-.912-.912.912.912,0,0,1,.912-.912.912.912,0,0,1,.912.912" transform="translate(53.333 26.667)" fill="#3f3f3f"/>
          </g>
          <g id="g2008" transform="translate(15.644)">
            <path id="path2010" d="M-51.509-25.754a.912.912,0,0,1-.912.912.912.912,0,0,1-.912-.912.912.912,0,0,1,.912-.912.912.912,0,0,1,.912.912" transform="translate(53.333 26.667)" fill="#3f3f3f"/>
          </g>
          <g id="g2012" transform="translate(15.644 3.193)">
            <path id="path2014" d="M-51.509-25.754a.912.912,0,0,1-.912.912.912.912,0,0,1-.912-.912.912.912,0,0,1,.912-.912.912.912,0,0,1,.912.912" transform="translate(53.333 26.667)" fill="#3f3f3f"/>
          </g>
          <g id="rupee" transform="translate(7.826 6.781)">
            <path id="Union_2" data-name="Union 2" d="M3.169,7.891.153,4.876a.458.458,0,0,1-.1-.553.439.439,0,0,1,.452-.3H2.012a1.368,1.368,0,0,0,1.056-.453,1.24,1.24,0,0,0,.37-.553H.505a.474.474,0,0,1-.5-.5.475.475,0,0,1,.5-.5H3.438a1.237,1.237,0,0,0-.37-.553,1.371,1.371,0,0,0-1.056-.452H.5A.475.475,0,0,1,0,.5.475.475,0,0,1,.5,0H6.034a.475.475,0,0,1,.5.5.475.475,0,0,1-.5.5H4.023a2.988,2.988,0,0,1,.447,1H6.034a.475.475,0,0,1,.5.5.475.475,0,0,1-.5.5H4.476a2.3,2.3,0,0,1-.7,1.257,2.359,2.359,0,0,1-1.759.753h-.3L3.872,7.188a.485.485,0,0,1,0,.7.486.486,0,0,1-.7,0Z" transform="translate(0)" fill="#008af8"/>
          </g>
        </g>
      </g>
    </g>
  </g>
</svg>
