<svg id="Fastest" xmlns="http://www.w3.org/2000/svg" width="28.69" height="23.353" viewBox="0 0 28.69 23.353">
  <path id="Path_139335" data-name="Path 139335" d="M9.624,7.67a9.675,9.675,0,1,1,0,14.513,1,1,0,1,0-1.325,1.5A11.676,11.676,0,1,0,8.3,6.17a1,1,0,1,0,1.325,1.5Z" transform="translate(0.994 -3.25)" fill="#3f3f3f" fill-rule="evenodd"/>
  <path id="Path_139336" data-name="Path 139336" d="M12.85,7.851v5.338a1,1,0,0,0,.294.707l4.27,4.27a1,1,0,1,0,1.415-1.415l-3.977-3.978V7.851a1,1,0,1,0-2,0Z" transform="translate(2.629 -2.046)" fill="#868686" fill-rule="evenodd"/>
  <path id="Path_139337" data-name="Path 139337" d="M2.251,9.752h8.007a1,1,0,0,0,0-2H2.251a1,1,0,0,0,0,2Z" transform="translate(-1.25 -1.745)" fill="#3f3f3f" fill-rule="evenodd"/>
  <path id="Path_139338" data-name="Path 139338" d="M3.251,13.252h8.007a1,1,0,0,0,0-2H3.251a1,1,0,0,0,0,2Z" transform="translate(-0.916 -0.575)" fill="#3f3f3f" fill-rule="evenodd"/>
  <path id="Path_139339" data-name="Path 139339" d="M4.251,16.752h8.007a1,1,0,0,0,0-2H4.251a1,1,0,0,0,0,2Z" transform="translate(-0.581 0.596)" fill="#3f3f3f" fill-rule="evenodd"/>
</svg>
